ffmpeg started on 2025-05-05 at 11:08:06
Report written to "D:\Convert\FFMetrics\reports\ssim_report-6.txt"
Log level: 32
Command line:
ffmpeg -hide_banner -nostdin -i "G:\\\xc0\xed\xe8\xec\xe5\\\xce\xed\xe3\xee\xe8\xed\xe3\xe8\\!_35_\xcb\xe5\xf2\xee_2024\\JamClub-1\\\xdd\xf2\xee\xf2 \xec\xe8\xf0 \xf1\xeb\xe8\xf8\xea\xee\xec \xed\xe5\xf1\xee\xe2\xe5\xf0\xf8\xe5\xed\xe5\xed\\JamClub_Kono_Sekai_wa_Fukanzen_Sugiru_08_1080p_HEVC.mkv" -i "G:\\\xc0\xed\xe8\xec\xe5\\\xce\xed\xe3\xee\xe8\xed\xe3\xe8\\!_35_\xcb\xe5\xf2\xee_2024\\JamClub-1\\\xdd\xf2\xee\xf2 \xec\xe8\xf0 \xf1\xeb\xe8\xf8\xea\xee\xec \xed\xe5\xf1\xee\xe2\xe5\xf0\xf8\xe5\xed\xe5\xed\\JamClub_Kono_Sekai_wa_Fukanzen_Sugiru_08_1080p.mp4" -lavfi "[0:v]settb=AVTB,setpts=PTS-STARTPTS,format=pix_fmts=yuv420p10,fps=24000/1001,scale=1920:1080:flags=bicubic[main];[1:v]settb=AVTB,setpts=PTS-STARTPTS,format=pix_fmts=yuv420p,fps=24000/1001,scale=1920:1080:flags=bicubic[ref];[main][ref]ssim=eof_action=endall:stats_file='D\\:/Convert/FFMetrics/logs/ssim_logfile-6.txt'" -f null -
Input #0, matroska,webm, from 'G:\Аниме\Онгоинги\!_35_Лето_2024\JamClub-1\Этот мир слишком несовершенен\JamClub_Kono_Sekai_wa_Fukanzen_Sugiru_08_1080p_HEVC.mkv':
  Metadata:
    COMPATIBLE_BRANDS: isomiso2avc1mp41
    MAJOR_BRAND     : isom
    MINOR_VERSION   : 512
    ENCODER         : Lavf61.7.100
  Duration: 00:24:27.35, start: -0.001000, bitrate: 1164 kb/s
  Stream #0:0: Video: hevc (Main 10), yuv420p10le(tv, bt709, progressive), 1920x1080 [SAR 1:1 DAR 16:9], 23.98 fps, 23.98 tbr, 1k tbn (default)
      Metadata:
        HANDLER_NAME    : VideoHandler
        VENDOR_ID       : [0][0][0][0]
        ENCODER         : Lavc61.19.100 libx265
        BPS             : 965854
        DURATION        : 00:24:27.215708333
        NUMBER_OF_FRAMES: 35178
        NUMBER_OF_BYTES : 177139488
        _STATISTICS_WRITING_APP: mkvpropedit v66.0.0 ('Josie') 64-bit
        _STATISTICS_WRITING_DATE_UTC: 2025-05-04 16:50:43
        _STATISTICS_TAGS: BPS DURATION NUMBER_OF_FRAMES NUMBER_OF_BYTES
  Stream #0:1(eng): Audio: aac (LC), 48000 Hz, stereo, fltp (default)
      Metadata:
        HANDLER_NAME    : SoundHandler
        VENDOR_ID       : [0][0][0][0]
        ENCODER         : Lavc61.19.100 aac
        BPS             : 195099
        DURATION        : 00:24:27.309000000
        NUMBER_OF_FRAMES: 68781
        NUMBER_OF_BYTES : 35783972
        _STATISTICS_WRITING_APP: mkvpropedit v66.0.0 ('Josie') 64-bit
        _STATISTICS_WRITING_DATE_UTC: 2025-05-04 16:50:43
        _STATISTICS_TAGS: BPS DURATION NUMBER_OF_FRAMES NUMBER_OF_BYTES
Input #1, mov,mp4,m4a,3gp,3g2,mj2, from 'G:\Аниме\Онгоинги\!_35_Лето_2024\JamClub-1\Этот мир слишком несовершенен\JamClub_Kono_Sekai_wa_Fukanzen_Sugiru_08_1080p.mp4':
  Metadata:
    major_brand     : isom
    minor_version   : 512
    compatible_brands: isomiso2avc1mp41
    encoder         : Lavf60.16.100
  Duration: 00:24:27.33, start: 0.000000, bitrate: 3130 kb/s
  Stream #1:0[0x1](und): Video: h264 (High) (avc1 / 0x31637661), yuv420p(progressive), 1920x1080 [SAR 1:1 DAR 16:9], 2932 kb/s, 23.98 fps, 23.98 tbr, 90k tbn (default)
      Metadata:
        handler_name    : VideoHandler
        vendor_id       : [0][0][0][0]
  Stream #1:1[0x2](eng): Audio: aac (LC) (mp4a / 0x6134706D), 48000 Hz, stereo, fltp, 191 kb/s (default)
      Metadata:
        handler_name    : SoundHandler
        vendor_id       : [0][0][0][0]
Stream mapping:
  Stream #0:0 (hevc) -> settb:default
  Stream #1:0 (h264) -> settb:default
  ssim:default -> Stream #0:0 (wrapped_avframe)
  Stream #0:1 -> #0:1 (aac (native) -> pcm_s16le (native))
Output #0, null, to 'pipe:':
  Metadata:
    COMPATIBLE_BRANDS: isomiso2avc1mp41
    MAJOR_BRAND     : isom
    MINOR_VERSION   : 512
    encoder         : Lavf61.7.100
  Stream #0:0: Video: wrapped_avframe, yuv420p10le(tv, bt709, progressive), 1920x1080 [SAR 1:1 DAR 16:9], q=2-31, 200 kb/s, 23.98 fps, 23.98 tbn
      Metadata:
        encoder         : Lavc61.19.100 wrapped_avframe
  Stream #0:1(eng): Audio: pcm_s16le, 48000 Hz, stereo, s16, 1536 kb/s (default)
      Metadata:
        HANDLER_NAME    : SoundHandler
        VENDOR_ID       : [0][0][0][0]
        _STATISTICS_TAGS: BPS DURATION NUMBER_OF_FRAMES NUMBER_OF_BYTES
        BPS             : 195099
        DURATION        : 00:24:27.309000000
        NUMBER_OF_FRAMES: 68781
        NUMBER_OF_BYTES : 35783972
        _STATISTICS_WRITING_APP: mkvpropedit v66.0.0 ('Josie') 64-bit
        _STATISTICS_WRITING_DATE_UTC: 2025-05-04 16:50:43
        encoder         : Lavc61.19.100 pcm_s16le
frame=  105 fps=0.0 q=-0.0 size=N/A time=00:00:04.37 bitrate=N/A speed=8.44x    frame=  263 fps=253 q=-0.0 size=N/A time=00:00:10.96 bitrate=N/A speed=10.5x    frame=  438 fps=283 q=-0.0 size=N/A time=00:00:18.26 bitrate=N/A speed=11.8x    frame=  615 fps=298 q=-0.0 size=N/A time=00:00:25.65 bitrate=N/A speed=12.4x    frame=  832 fps=321 q=-0.0 size=N/A time=00:00:34.70 bitrate=N/A speed=13.4x    frame= 1072 fps=345 q=-0.0 size=N/A time=00:00:44.71 bitrate=N/A speed=14.4x    frame= 1271 fps=350 q=-0.0 size=N/A time=00:00:53.01 bitrate=N/A speed=14.6x    frame= 1509 fps=365 q=-0.0 size=N/A time=00:01:02.93 bitrate=N/A speed=15.2x    frame= 1734 fps=372 q=-0.0 size=N/A time=00:01:12.32 bitrate=N/A speed=15.5x    frame= 1987 fps=383 q=-0.0 size=N/A time=00:01:22.87 bitrate=N/A speed=  16x    frame= 2241 fps=392 q=-0.0 size=N/A time=00:01:33.46 bitrate=N/A speed=16.4x    frame= 2493 fps=401 q=-0.0 size=N/A time=00:01:43.97 bitrate=N/A speed=16.7x    frame= 2696 fps=400 q=-0.0 size=N/A time=00:01:52.44 bitrate=N/A speed=16.7x    frame= 2941 fps=406 q=-0.0 size=N/A time=00:02:02.66 bitrate=N/A speed=16.9x    frame= 3218 fps=414 q=-0.0 size=N/A time=00:02:14.21 bitrate=N/A speed=17.3x    frame= 3357 fps=405 q=-0.0 size=N/A time=00:02:20.01 bitrate=N/A speed=16.9x    frame= 3489 fps=397 q=-0.0 size=N/A time=00:02:25.52 bitrate=N/A speed=16.5x    frame= 3632 fps=390 q=-0.0 size=N/A time=00:02:31.48 bitrate=N/A speed=16.2x    frame= 3841 fps=391 q=-0.0 size=N/A time=00:02:40.20 bitrate=N/A speed=16.3x    frame= 4071 fps=394 q=-0.0 size=N/A time=00:02:49.79 bitrate=N/A speed=16.4x    frame= 4273 fps=393 q=-0.0 size=N/A time=00:02:58.21 bitrate=N/A speed=16.4x    frame= 4451 fps=391 q=-0.0 size=N/A time=00:03:05.64 bitrate=N/A speed=16.3x    frame= 4659 fps=391 q=-0.0 size=N/A time=00:03:14.31 bitrate=N/A speed=16.3x    frame= 4847 fps=391 q=-0.0 size=N/A time=00:03:22.16 bitrate=N/A speed=16.3x    frame= 5014 fps=388 q=-0.0 size=N/A time=00:03:29.12 bitrate=N/A speed=16.2x    frame= 5185 fps=386 q=-0.0 size=N/A time=00:03:36.25 bitrate=N/A speed=16.1x    frame= 5415 fps=388 q=-0.0 size=N/A time=00:03:45.85 bitrate=N/A speed=16.2x    frame= 5661 fps=391 q=-0.0 size=N/A time=00:03:56.11 bitrate=N/A speed=16.3x    frame= 5917 fps=395 q=-0.0 size=N/A time=00:04:06.78 bitrate=N/A speed=16.5x    frame= 6169 fps=398 q=-0.0 size=N/A time=00:04:17.29 bitrate=N/A speed=16.6x    frame= 6428 fps=401 q=-0.0 size=N/A time=00:04:28.10 bitrate=N/A speed=16.7x    frame= 6698 fps=405 q=-0.0 size=N/A time=00:04:39.36 bitrate=N/A speed=16.9x    frame= 6958 fps=408 q=-0.0 size=N/A time=00:04:50.20 bitrate=N/A speed=  17x    frame= 7209 fps=410 q=-0.0 size=N/A time=00:05:00.67 bitrate=N/A speed=17.1x    frame= 7456 fps=412 q=-0.0 size=N/A time=00:05:10.97 bitrate=N/A speed=17.2x    frame= 7721 fps=415 q=-0.0 size=N/A time=00:05:22.03 bitrate=N/A speed=17.3x    frame= 7970 fps=417 q=-0.0 size=N/A time=00:05:32.41 bitrate=N/A speed=17.4x    frame= 8218 fps=419 q=-0.0 size=N/A time=00:05:42.75 bitrate=N/A speed=17.5x    frame= 8470 fps=421 q=-0.0 size=N/A time=00:05:53.26 bitrate=N/A speed=17.5x    frame= 8756 fps=424 q=-0.0 size=N/A time=00:06:05.19 bitrate=N/A speed=17.7x    frame= 9035 fps=427 q=-0.0 size=N/A time=00:06:16.83 bitrate=N/A speed=17.8x    frame= 9308 fps=429 q=-0.0 size=N/A time=00:06:28.22 bitrate=N/A speed=17.9x    frame= 9584 fps=432 q=-0.0 size=N/A time=00:06:39.73 bitrate=N/A speed=  18x    frame= 9851 fps=433 q=-0.0 size=N/A time=00:06:50.86 bitrate=N/A speed=18.1x    frame=10125 fps=436 q=-0.0 size=N/A time=00:07:02.29 bitrate=N/A speed=18.2x    frame=10381 fps=437 q=-0.0 size=N/A time=00:07:12.97 bitrate=N/A speed=18.2x    frame=10647 fps=439 q=-0.0 size=N/A time=00:07:24.06 bitrate=N/A speed=18.3x    frame=10904 fps=440 q=-0.0 size=N/A time=00:07:34.78 bitrate=N/A speed=18.4x    frame=11152 fps=441 q=-0.0 size=N/A time=00:07:45.13 bitrate=N/A speed=18.4x    frame=11392 fps=441 q=-0.0 size=N/A time=00:07:55.14 bitrate=N/A speed=18.4x    frame=11642 fps=442 q=-0.0 size=N/A time=00:08:05.56 bitrate=N/A speed=18.4x    frame=11887 fps=443 q=-0.0 size=N/A time=00:08:15.78 bitrate=N/A speed=18.5x    frame=12109 fps=442 q=-0.0 size=N/A time=00:08:25.04 bitrate=N/A speed=18.5x    frame=12356 fps=443 q=-0.0 size=N/A time=00:08:35.34 bitrate=N/A speed=18.5x    frame=12624 fps=445 q=-0.0 size=N/A time=00:08:46.52 bitrate=N/A speed=18.5x    frame=12883 fps=445 q=-0.0 size=N/A time=00:08:57.32 bitrate=N/A speed=18.6x    frame=13104 fps=445 q=-0.0 size=N/A time=00:09:06.54 bitrate=N/A speed=18.6x    frame=13307 fps=444 q=-0.0 size=N/A time=00:09:15.01 bitrate=N/A speed=18.5x    frame=13507 fps=443 q=-0.0 size=N/A time=00:09:23.35 bitrate=N/A speed=18.5x    frame=13699 fps=442 q=-0.0 size=N/A time=00:09:31.36 bitrate=N/A speed=18.4x    frame=13905 fps=442 q=-0.0 size=N/A time=00:09:39.95 bitrate=N/A speed=18.4x    frame=14130 fps=442 q=-0.0 size=N/A time=00:09:49.33 bitrate=N/A speed=18.4x    frame=14313 fps=440 q=-0.0 size=N/A time=00:09:56.97 bitrate=N/A speed=18.4x    frame=14557 fps=441 q=-0.0 size=N/A time=00:10:07.14 bitrate=N/A speed=18.4x    frame=14809 fps=441 q=-0.0 size=N/A time=00:10:17.65 bitrate=N/A speed=18.4x    frame=15071 fps=442 q=-0.0 size=N/A time=00:10:28.58 bitrate=N/A speed=18.4x    frame=15314 fps=443 q=-0.0 size=N/A time=00:10:38.72 bitrate=N/A speed=18.5x    frame=15562 fps=443 q=-0.0 size=N/A time=00:10:49.06 bitrate=N/A speed=18.5x    frame=15805 fps=444 q=-0.0 size=N/A time=00:10:59.20 bitrate=N/A speed=18.5x    frame=16048 fps=444 q=-0.0 size=N/A time=00:11:09.33 bitrate=N/A speed=18.5x    frame=16299 fps=445 q=-0.0 size=N/A time=00:11:19.80 bitrate=N/A speed=18.6x    frame=16542 fps=445 q=-0.0 size=N/A time=00:11:29.93 bitrate=N/A speed=18.6x    frame=16808 fps=446 q=-0.0 size=N/A time=00:11:41.03 bitrate=N/A speed=18.6x    frame=17066 fps=447 q=-0.0 size=N/A time=00:11:51.79 bitrate=N/A speed=18.6x    frame=17341 fps=448 q=-0.0 size=N/A time=00:12:03.26 bitrate=N/A speed=18.7x    frame=17599 fps=449 q=-0.0 size=N/A time=00:12:14.02 bitrate=N/A speed=18.7x    frame=17824 fps=449 q=-0.0 size=N/A time=00:12:23.40 bitrate=N/A speed=18.7x    frame=18055 fps=449 q=-0.0 size=N/A time=00:12:33.04 bitrate=N/A speed=18.7x    frame=18306 fps=449 q=-0.0 size=N/A time=00:12:43.51 bitrate=N/A speed=18.7x    frame=18516 fps=448 q=-0.0 size=N/A time=00:12:52.27 bitrate=N/A speed=18.7x    frame=18756 fps=449 q=-0.0 size=N/A time=00:13:02.28 bitrate=N/A speed=18.7x    frame=19004 fps=449 q=-0.0 size=N/A time=00:13:12.62 bitrate=N/A speed=18.7x    frame=19254 fps=449 q=-0.0 size=N/A time=00:13:23.05 bitrate=N/A speed=18.7x    frame=19510 fps=450 q=-0.0 size=N/A time=00:13:33.72 bitrate=N/A speed=18.8x    frame=19743 fps=450 q=-0.0 size=N/A time=00:13:43.44 bitrate=N/A speed=18.8x    frame=19974 fps=450 q=-0.0 size=N/A time=00:13:53.08 bitrate=N/A speed=18.8x    frame=20213 fps=450 q=-0.0 size=N/A time=00:14:03.05 bitrate=N/A speed=18.8x    frame=20457 fps=450 q=-0.0 size=N/A time=00:14:13.22 bitrate=N/A speed=18.8x    frame=20698 fps=451 q=-0.0 size=N/A time=00:14:23.27 bitrate=N/A speed=18.8x    frame=20940 fps=451 q=-0.0 size=N/A time=00:14:33.37 bitrate=N/A speed=18.8x    frame=21211 fps=452 q=-0.0 size=N/A time=00:14:44.67 bitrate=N/A speed=18.8x    frame=21483 fps=452 q=-0.0 size=N/A time=00:14:56.02 bitrate=N/A speed=18.9x    frame=21734 fps=453 q=-0.0 size=N/A time=00:15:06.48 bitrate=N/A speed=18.9x    frame=21977 fps=453 q=-0.0 size=N/A time=00:15:16.62 bitrate=N/A speed=18.9x    frame=22232 fps=454 q=-0.0 size=N/A time=00:15:27.25 bitrate=N/A speed=18.9x    frame=22489 fps=454 q=-0.0 size=N/A time=00:15:37.97 bitrate=N/A speed=18.9x    frame=22705 fps=454 q=-0.0 size=N/A time=00:15:46.98 bitrate=N/A speed=18.9x    frame=22935 fps=454 q=-0.0 size=N/A time=00:15:56.58 bitrate=N/A speed=18.9x    frame=23184 fps=454 q=-0.0 size=N/A time=00:16:06.96 bitrate=N/A speed=18.9x    frame=23433 fps=454 q=-0.0 size=N/A time=00:16:17.35 bitrate=N/A speed=18.9x    frame=23674 fps=454 q=-0.0 size=N/A time=00:16:27.40 bitrate=N/A speed=18.9x    frame=23922 fps=454 q=-0.0 size=N/A time=00:16:37.74 bitrate=N/A speed=  19x    frame=24176 fps=455 q=-0.0 size=N/A time=00:16:48.34 bitrate=N/A speed=  19x    frame=24431 fps=455 q=-0.0 size=N/A time=00:16:58.97 bitrate=N/A speed=  19x    frame=24696 fps=456 q=-0.0 size=N/A time=00:17:10.02 bitrate=N/A speed=  19x    frame=24942 fps=456 q=-0.0 size=N/A time=00:17:20.28 bitrate=N/A speed=  19x    frame=25165 fps=456 q=-0.0 size=N/A time=00:17:29.59 bitrate=N/A speed=  19x    frame=25431 fps=456 q=-0.0 size=N/A time=00:17:40.68 bitrate=N/A speed=  19x    frame=25681 fps=457 q=-0.0 size=N/A time=00:17:51.11 bitrate=N/A speed=  19x    frame=25928 fps=457 q=-0.0 size=N/A time=00:18:01.41 bitrate=N/A speed=19.1x    frame=26197 fps=457 q=-0.0 size=N/A time=00:18:12.63 bitrate=N/A speed=19.1x    frame=26444 fps=457 q=-0.0 size=N/A time=00:18:22.93 bitrate=N/A speed=19.1x    frame=26689 fps=458 q=-0.0 size=N/A time=00:18:33.15 bitrate=N/A speed=19.1x    frame=26914 fps=457 q=-0.0 size=N/A time=00:18:42.53 bitrate=N/A speed=19.1x    frame=27143 fps=457 q=-0.0 size=N/A time=00:18:52.08 bitrate=N/A speed=19.1x    frame=27402 fps=458 q=-0.0 size=N/A time=00:19:02.89 bitrate=N/A speed=19.1x    frame=27654 fps=458 q=-0.0 size=N/A time=00:19:13.40 bitrate=N/A speed=19.1x    frame=27919 fps=458 q=-0.0 size=N/A time=00:19:24.45 bitrate=N/A speed=19.1x    frame=28140 fps=458 q=-0.0 size=N/A time=00:19:33.67 bitrate=N/A speed=19.1x    frame=28413 fps=459 q=-0.0 size=N/A time=00:19:45.05 bitrate=N/A speed=19.1x    frame=28668 fps=459 q=-0.0 size=N/A time=00:19:55.69 bitrate=N/A speed=19.2x    frame=28926 fps=459 q=-0.0 size=N/A time=00:20:06.45 bitrate=N/A speed=19.2x    frame=29178 fps=460 q=-0.0 size=N/A time=00:20:16.96 bitrate=N/A speed=19.2x    frame=29419 fps=460 q=-0.0 size=N/A time=00:20:27.01 bitrate=N/A speed=19.2x    frame=29606 fps=459 q=-0.0 size=N/A time=00:20:34.81 bitrate=N/A speed=19.1x    frame=29866 fps=459 q=-0.0 size=N/A time=00:20:45.66 bitrate=N/A speed=19.2x    frame=30084 fps=459 q=-0.0 size=N/A time=00:20:54.75 bitrate=N/A speed=19.1x    frame=30340 fps=459 q=-0.0 size=N/A time=00:21:05.43 bitrate=N/A speed=19.2x    frame=30593 fps=460 q=-0.0 size=N/A time=00:21:15.98 bitrate=N/A speed=19.2x    frame=30847 fps=460 q=-0.0 size=N/A time=00:21:26.57 bitrate=N/A speed=19.2x    frame=31113 fps=460 q=-0.0 size=N/A time=00:21:37.67 bitrate=N/A speed=19.2x    frame=31368 fps=460 q=-0.0 size=N/A time=00:21:48.30 bitrate=N/A speed=19.2x    frame=31614 fps=461 q=-0.0 size=N/A time=00:21:58.56 bitrate=N/A speed=19.2x    frame=31853 fps=461 q=-0.0 size=N/A time=00:22:08.53 bitrate=N/A speed=19.2x    frame=32113 fps=461 q=-0.0 size=N/A time=00:22:19.37 bitrate=N/A speed=19.2x    frame=32342 fps=461 q=-0.0 size=N/A time=00:22:28.93 bitrate=N/A speed=19.2x    frame=32595 fps=461 q=-0.0 size=N/A time=00:22:39.48 bitrate=N/A speed=19.2x    frame=32855 fps=461 q=-0.0 size=N/A time=00:22:50.32 bitrate=N/A speed=19.2x    frame=33086 fps=461 q=-0.0 size=N/A time=00:22:59.96 bitrate=N/A speed=19.2x    frame=33284 fps=461 q=-0.0 size=N/A time=00:23:08.22 bitrate=N/A speed=19.2x    frame=33493 fps=460 q=-0.0 size=N/A time=00:23:16.93 bitrate=N/A speed=19.2x    frame=33706 fps=460 q=-0.0 size=N/A time=00:23:25.82 bitrate=N/A speed=19.2x    frame=33908 fps=460 q=-0.0 size=N/A time=00:23:34.24 bitrate=N/A speed=19.2x    frame=34050 fps=458 q=-0.0 size=N/A time=00:23:40.16 bitrate=N/A speed=19.1x    frame=34267 fps=458 q=-0.0 size=N/A time=00:23:49.21 bitrate=N/A speed=19.1x    frame=34444 fps=457 q=-0.0 size=N/A time=00:23:56.60 bitrate=N/A speed=19.1x    frame=34634 fps=457 q=-0.0 size=N/A time=00:24:04.52 bitrate=N/A speed=  19x    frame=34854 fps=456 q=-0.0 size=N/A time=00:24:13.70 bitrate=N/A speed=  19x    frame=35074 fps=456 q=-0.0 size=N/A time=00:24:22.87 bitrate=N/A speed=  19x    [Parsed_ssim_10 @ 00000276b03caa00] SSIM Y:0.994085 (22.280352) U:0.993768 (22.053436) V:0.994419 (22.532939) All:0.994088 (22.282425)
[out#0/null @ 00000276a98a6e00] video:15116KiB audio:275124KiB subtitle:0KiB other streams:0KiB global headers:0KiB muxing overhead: unknown
frame=35178 fps=456 q=-0.0 Lsize=N/A time=00:24:27.21 bitrate=N/A speed=  19x    
